<mxfile host="app.diagrams.net" modified="2024-05-16T02:53:26.301Z" agent="Mozilla/5.0 (Macintosh; Intel Mac OS X 10.15; rv:125.0) Gecko/20100101 Firefox/125.0" version="24.4.2" etag="38Rz-iR3vIPEa6tpqy24" type="github">
  <diagram name="PÃ¡gina-1" id="H1YSKgZ1nG0BbwJZpLrO">
    <mxGraphModel>
      <root>
        <mxCell id="0" />
        <mxCell id="1" parent="0" />
      </root>
    </mxGraphModel>
  </diagram>
</mxfile>
